<?xml version="1.0" encoding="UTF-8" standalone="no"?>
<svg
   xmlns:dc="http://purl.org/dc/elements/1.1/"
   xmlns:cc="http://creativecommons.org/ns#"
   xmlns:rdf="http://www.w3.org/1999/02/22-rdf-syntax-ns#"
   xmlns:svg="http://www.w3.org/2000/svg"
   xmlns="http://www.w3.org/2000/svg"
   xmlns:sodipodi="http://sodipodi.sourceforge.net/DTD/sodipodi-0.dtd"
   xmlns:inkscape="http://www.inkscape.org/namespaces/inkscape"
   inkscape:version="1.0 (4035a4fb49, 2020-05-01)"
   sodipodi:docname="test2.svg"
   id="svg43"
   version="1.1"
   fill="none"
   viewBox="0 0 71.457397 39.99987"
   height="800"
   width="1430">
  <metadata
     id="metadata47">
    <rdf:RDF>
      <cc:Work
         rdf:about="">
        <dc:format>image/svg+xml</dc:format>
        <dc:type
           rdf:resource="http://purl.org/dc/dcmitype/StillImage" />
        <dc:title></dc:title>
      </cc:Work>
    </rdf:RDF>
  </metadata>
  <sodipodi:namedview
     inkscape:current-layer="svg43"
     inkscape:window-maximized="1"
     inkscape:window-y="-9"
     inkscape:window-x="-9"
     inkscape:cy="40"
     inkscape:cx="158"
     inkscape:zoom="3.8227848"
     showgrid="false"
     id="namedview45"
     inkscape:window-height="1351"
     inkscape:window-width="2560"
     inkscape:pageshadow="2"
     inkscape:pageopacity="0"
     guidetolerance="10"
     gridtolerance="10"
     objecttolerance="10"
     borderopacity="1"
     bordercolor="#666666"
     pagecolor="#ffffff" />
  <path
     style="fill:url(#paint0_linear)"
     id="path2"
     fill="url(#paint0_linear)"
     d="M 67.9685,18.8461 V 9.13452 H 61.6161 V 0.58300799 L 51.4889,3.63823 v 5.49629 h -8.4088 v 9.71158 h 8.4088 v 9.1005 c 0,9.4076 4.0323,13.2569 16.492,11.7277 v -9.1594 c -4.0912,0.2419 -6.3524,0.0589 -6.3524,-2.8102 v -8.8586 z" />
  <path
     id="path4"
     fill="#000000"
     d="M 47.2768,9.13477 37.9313,39.6746 H 28.0367 L 23.6384,24.1627 19.2401,39.6746 H 9.34556 L 0,9.13477 H 10.7507 L 14.7829,25.7508 19.3611,9.13477 h 8.5515 L 32.4939,25.7508 36.5262,9.13477 Z" />
  <path
     id="path6"
     fill="#000000"
     d="m 67.4575,3.33092 h 0.7352 C 68.329,3.32447 68.4572,3.2645 68.5496,3.16402 68.6419,3.06354 68.6909,2.93069 68.6858,2.79431 68.6887,2.72684 68.6783,2.65946 68.655,2.59605 68.6318,2.53264 68.5962,2.47447 68.5503,2.42487 68.5045,2.37528 68.4493,2.33525 68.3879,2.30709 68.3265,2.27894 68.2602,2.26321 68.1927,2.26081 h -0.7352 z m 0.546,0.62035 h -0.546 V 5.21368 H 66.7441 V 1.59084 h 1.4486 c 0.1584,-8.2e-4 0.3154,0.02972 0.4619,0.08988 0.1466,0.06015 0.2798,0.14871 0.392,0.26059 0.1121,0.11188 0.201,0.24485 0.2616,0.39125 0.0605,0.1464 0.0915,0.30333 0.091,0.46175 -0.0033,0.22411 -0.0708,0.44255 -0.1945,0.62946 -0.1237,0.18691 -0.2984,0.33444 -0.5034,0.42514 l 0.8034,1.36787 h -0.7723 z" />
  <path
     id="path8"
     fill="#000000"
     d="m 67.968,0.50558599 c -0.591,-6.13e-4 -1.169,0.174127 -1.6607,0.50210401 -0.4916,0.32798 -0.875,0.79445 -1.1014,1.34038 -0.2265,0.54592 -0.2859,1.14676 -0.1708,1.72647 0.1152,0.5797 0.3997,1.11222 0.8177,1.53014 0.4179,0.41793 0.9504,0.70247 1.5301,0.81763 0.5797,0.11515 1.1806,0.05574 1.7265,-0.17073 C 69.6553,6.02512 70.1218,5.64179 70.4498,5.15011 70.7777,4.65843 70.9525,4.0805 70.9519,3.48947 70.9502,2.6986 70.6353,1.94059 70.0761,1.38136 69.5169,0.82212399 68.7589,0.50722499 67.968,0.50558599 Z m 0,6.47334401 c -0.6902,0 -1.3648,-0.20465 -1.9387,-0.58808 C 65.4555,6.00742 65.0082,5.46244 64.7441,4.82483 64.48,4.18721 64.4109,3.4856 64.5456,2.80871 c 0.1346,-0.67689 0.4669,-1.29866 0.955,-1.78667 0.488,-0.48800801 1.1097,-0.82034801 1.7866,-0.95498931 0.6769,-0.1346418 1.3785,-0.06553876 2.0161,0.1985703 0.6377,0.26411 1.1826,0.711363 1.5661,1.28519901 0.3834,0.57384 0.588,1.2485 0.588,1.93865 0,0.92546 -0.3676,1.81302 -1.022,2.46742 -0.6544,0.6544 -1.542,1.02204 -2.4674,1.02204 z" />
  <defs
     id="defs41">
    <linearGradient
       gradientUnits="userSpaceOnUse"
       y2="13.6476"
       x2="67.928299"
       y1="13.8027"
       x1="44.975399"
       id="paint0_linear">
      <stop
         id="stop36"
         stop-color="#008B00" />
      <stop
         id="stop38"
         stop-color="#00E600"
         offset="1" />
    </linearGradient>
    <clipPath
       id="clipPath880"
       clipPathUnits="userSpaceOnUse">
      <path
         d="m 132.68847,8.790039 v 11.65039 h 11.0752 V 8.790039 Z"
         style="fill:#ff0000;fill-opacity:1;fill-rule:nonzero;stroke:none;stroke-width:0.5"
         id="path882" />
    </clipPath>
    <clipPath
       id="clipPath890"
       clipPathUnits="userSpaceOnUse">
      <path
         d="m 145.32031,8.798828 v 16.499023 h 12.28613 V 8.798828 h -1.03613 c -0.0973,0.373433 -0.43311,0.400945 -0.84082,0 z"
         style="fill:#ff0000;fill-opacity:1;fill-rule:nonzero;stroke:none;stroke-width:0.5"
         id="path892" />
    </clipPath>
  </defs>
</svg>
